<svg width="413" height="187" viewBox="0 0 413 187" fill="none" xmlns="http://www.w3.org/2000/svg">
  <path d="M281 184C292 158 277 146 262 146L114 144C110 144 110 138 115 137L265 135C282 134 302 120 308 102C308 102 318 81 317 78C312.671 57.1128 301.578 38.2349 285.437 24.2887C269.296 10.3424 249.009 2.10541 227.715 0.8528C206.42 -0.399806 185.307 5.40179 167.642 17.3595C149.978 29.3173 136.748 46.7643 130 67C92 42 52 76 61 113C13 116 -4 159 0.999998 185C0.999998 186 2 187 4 187H278C279 187 281 186 281 184Z" fill="#F38020"/>
  <path d="M331 82C327 82 325 81 324 83L319 104C314 120 322 134 339 135L371 137C375 137 375 143 370 144L337 145C301 149 291 184 291 184C291 186 291 187 293 187H406L409 185C412.4 172.952 412.961 160.279 410.64 147.978C408.318 135.676 403.176 124.08 395.618 114.1C388.061 104.119 378.293 96.027 367.081 90.4575C355.869 84.888 343.519 81.9931 331 82Z" fill="#FAAE40"/>
</svg>
